<?xml version="1.0" encoding="UTF-8"?><svg id="Layer_2" xmlns="http://www.w3.org/2000/svg" viewBox="0 0 238.73828 131.86035"><defs><style>.cls-1{fill:#955396;}.cls-2{fill:#003f5c;}.cls-3{fill:#f8a31d;}</style></defs><g id="Layer_1-2"><g><path d="M45.6582,51.36035V30.12109c0-5.33984,.12012-10.67969,.36035-16.01953h-.12012c-1.37988,5.21973-2.93945,10.55957-4.55957,15.71973l-6.78027,21.53906h-10.0791l-6.78027-21.53906c-1.61914-5.16016-3.17969-10.5-4.55957-15.71973h-.12012c.24023,5.33984,.36035,10.67969,.36035,16.01953v21.23926H4.91992V8.64258h14.15918l6.17969,19.61914c1.62012,5.15918,3.06055,10.49902,4.2002,15.71875h.12012c1.13965-5.21973,2.58008-10.55957,4.2002-15.71875l6.17969-19.61914h14.15918V51.36035h-8.45996Z"/><path class="cls-3" d="M98.69824,30.00098c0,13.85938-7.67969,22.31934-20.21973,22.31934-12.53906,0-20.21875-8.45996-20.21875-22.31934s7.67969-22.31934,20.21875-22.31934c12.54004,0,20.21973,8.45996,20.21973,22.31934Zm-31.31934,0c0,9,4.2002,14.51953,11.09961,14.51953,6.90039,0,11.09961-5.51953,11.09961-14.51953,0-8.99902-4.19922-14.51953-11.09961-14.51953-6.89941,0-11.09961,5.52051-11.09961,14.51953Z"/><path class="cls-1" d="M141.77637,30.00098c0,13.85938-7.67969,22.31934-20.21875,22.31934-12.54004,0-20.21973-8.45996-20.21973-22.31934s7.67969-22.31934,20.21973-22.31934c12.53906,0,20.21875,8.45996,20.21875,22.31934Zm-31.31836,0c0,9,4.2002,14.51953,11.09961,14.51953s11.09961-5.51953,11.09961-14.51953c0-8.99902-4.2002-14.51953-11.09961-14.51953s-11.09961,5.52051-11.09961,14.51953Z"/><path d="M160.13672,8.64258c14.51953,0,22.67871,7.67969,22.67871,21.3584,0,13.67969-8.15918,21.35938-22.67871,21.35938h-14.21973V8.64258h14.21973Zm-5.45996,35.1582h5.33984c9.17969,0,13.67969-4.55957,13.67969-13.7998,0-9.23926-4.5-13.79883-13.67969-13.79883h-5.33984v27.59863Z"/><path d="M216.65527,21.72168h-8.93945c0-4.44043-2.58008-7.01953-7.43945-7.01953-3.90039,0-6.54004,1.91992-6.54004,4.67969,0,3.2998,2.58008,4.37988,9.2998,6.05957,8.03906,1.97949,14.99902,4.08008,14.99902,13.37988,0,8.09961-6.71973,13.49902-16.67871,13.49902-10.62012,0-17.2793-5.2793-17.2793-14.99902h9.11914c0,5.15918,2.82031,7.85938,8.2793,7.85938,4.5,0,7.37988-2.09961,7.37988-5.45996,0-3.7793-2.75977-4.5-8.81934-6.05957-8.04004-2.04004-15.35938-3.95996-15.35938-13.31934,0-7.5,6.41992-12.66016,15.7793-12.66016,10.67969,0,16.19922,4.86035,16.19922,14.04004Z"/><path class="cls-2" d="M32.21875,108.82031c-3.65918,4.5-8.45898,7.25977-14.51953,7.25977-8.39941,0-13.67871-4.97949-13.67871-11.81934,0-5.75977,3.35938-9.47949,10.49902-12.95898-4.73926-4.74023-5.81934-7.02051-5.81934-10.74023,0-4.97949,3.65918-8.5791,8.81934-8.5791,5.39941,0,8.87988,3.71973,8.87988,8.69922,0,4.7998-2.21973,7.91992-8.45996,11.04004l14.03906,13.73926c2.16016-3.59961,3.36035-8.16016,3.36035-13.85938h2.28027c0,6.2998-1.5,11.39941-4.08008,15.41895l8.51953,8.33984h-3.17969l-6.66016-6.54004Zm-1.5-1.5l-14.75879-14.63867c-7.02051,3.41992-9.59961,6.47949-9.59961,11.5791,0,5.63965,4.31934,9.71973,11.33887,9.71973,5.45996,0,9.78027-2.45996,13.01953-6.66016Zm-14.21875-16.97852c6.11914-3,7.79883-5.75977,7.79883-9.66016,0-3.83984-2.63965-6.65918-6.7793-6.65918-4.01953,0-6.71973,2.63965-6.71973,6.53906,0,3.17969,1.08008,5.21973,5.7002,9.78027Z"/><path d="M96.17773,115.36035v-21.23926c0-5.33984,.12012-10.67969,.35938-16.01953h-.12012c-1.37988,5.21973-2.93945,10.55957-4.55957,15.71973l-6.7793,21.53906h-10.08008l-6.7793-21.53906c-1.62012-5.16016-3.17969-10.5-4.55957-15.71973h-.12012c.23926,5.33984,.35938,10.67969,.35938,16.01953v21.23926h-8.45898v-42.71777h14.15918l6.17969,19.61914c1.62012,5.15918,3.05957,10.49902,4.2002,15.71875h.11914c1.14062-5.21973,2.58008-10.55957,4.2002-15.71875l6.17969-19.61914h14.15918v42.71777h-8.45898Z"/><path d="M120.29785,80.20215v9.65918h19.31934v7.5h-19.31934v10.43945h21.23926v7.55957h-30.05859v-42.71777h29.51855v7.55957h-20.69922Z"/><path d="M160.67773,72.64258c14.51953,0,22.67969,7.67969,22.67969,21.3584,0,13.67969-8.16016,21.35938-22.67969,21.35938h-14.21875v-42.71777h14.21875Zm-5.45898,35.1582h5.33887c9.17969,0,13.67969-4.55957,13.67969-13.7998,0-9.23926-4.5-13.79883-13.67969-13.79883h-5.33887v27.59863Z"/><path d="M187.49805,115.36035v-42.71777h8.81934v42.71777h-8.81934Z"/><path d="M209.81738,104.9209l-3.35938,10.43945h-9.23926l14.81934-42.71777h11.87891l14.81934,42.71777h-9.23926l-3.2998-10.43945h-16.37988Zm13.08008-10.37988c-1.74023-5.51953-3.41992-11.15918-4.86035-16.67871h-.11914c-1.44043,5.51953-3.06055,11.15918-4.7998,16.67871l-.90039,2.82031h11.5791l-.89941-2.82031Z"/></g></g></svg>