<?xml version="1.0" encoding="UTF-8"?><svg id="Layer_2" xmlns="http://www.w3.org/2000/svg" viewBox="0 0 266.07 309.82"><defs><style>.cls-1{fill:#0e1436;}.cls-2{fill:#d6c7ec;}.cls-3{fill:none;stroke:#0e1436;stroke-width:.86px;}</style></defs><g id="Layer_1-2"><g><path class="cls-2" d="M24.71,190.28c-2.4-56.86,52.72-79.91,102.58-71.21,5.05,6.19,42.18,165.11,48.6,189.61-90.71,9.74-150.69-43.92-151.18-118.4"/><path class="cls-2" d="M266.07,245.76C204.31,175.95,50.28,0,50.28,0l53.95,245.76h161.84Z"/><g><path class="cls-1" d="M73.07,102.23l5.6-22.49c.38-1.61,.16-1.83-.38-1.83h-5.54v-.7h13.61v.7h-5.54c-.54,0-.97,.22-1.35,1.83l-5.6,22.49c-1.99,8.07,.38,12.7,8.18,12.7s12.27-4.57,14.31-12.75c6.03-24.27,5.97-24.27,5.17-24.27h-8.61v-.7h15.55v.7h-4.41c-.75,0-.86,0-6.89,24.21-2.15,8.72-7.1,13.61-15.39,13.61s-10.87-4.9-8.72-13.5Z"/><path class="cls-1" d="M123.7,78.88l-8.34,33.46c-.38,1.51-.11,1.83,.75,1.83h7.8v.7h-16.25v-.7h5.6c.43,0,.91,0,1.34-1.83l8.12-32.6c.32-1.29,.22-1.83-.43-1.83h-5.6v-.7h7.21l14.53,36.05,8.39-33.52c.38-1.51,.05-1.83-.81-1.83h-7.8v-.7h16.25v.7h-5.6c-.43,0-.86,0-1.29,1.83l-8.77,35.13h-.59l-14.53-35.99Z"/></g><g><path class="cls-1" d="M0,167.98H5.54c.54,0,.91-.22,1.29-1.83l8.12-32.6c.38-1.61-.16-1.83-.7-1.83h-5.54v-.7h26.09l-3.39,13.61h-.7c2.96-12.05,3.28-12.91,1.94-12.91H16.57c-.27,.59-.81,1.88-3.28,11.89l-1.24,5h12.75l-.22,.81H11.84l-4.14,16.68c-.43,1.72,.32,1.88,1.08,1.88h7.8v.7H0v-.7Z"/><path class="cls-1" d="M35.78,167.98h5.54c.54,0,.91-.22,1.29-1.83l8.12-32.6c.38-1.61-.16-1.83-.7-1.83h-5.54v-.7h11.67c8.82,0,12.59,3.23,12.59,9.15,0,4.41-3.28,10.44-13.67,11.57,1.24,4.09,2.74,8.93,5.65,14.53,1.18,2.26,1.56,2.26,4.41,2.26v.43c-.54,.16-1.51,.22-1.94,.22-1.4,0-2.21-.7-2.96-2.1-3.39-6.56-4.73-11.14-5.92-15.28-.91,.05-1.83,.11-2.8,.11h-3.44l.22-.81h3.39c12.48,0,16.25-6.08,16.25-10.92,0-6.13-4.36-8.45-11.73-8.45h-3.82c-.27,.54-.86,1.94-3.34,11.89l-5.6,22.54c-.38,1.61,.16,1.83,.7,1.83h5.54v.7h-13.94v-.7Z"/><path class="cls-1" d="M74.74,167.23l21.04-35.46-.22-1.4,.05-.21h.91c0,.54,0,1.24,.16,2.47l4.25,34.49c.11,.75,.16,.86,2.74,.86v.7h-12.21v-.7h7.69c.91,0,1.02-.38,.97-.92l-1.51-12.32h-15.6l-7.48,12.59c-.27,.48,0,.65,.38,.65h7.64v.7h-12.16v-.7c2.74,0,3.01-.22,3.34-.75Zm23.78-13.18l-2.58-21.04-12.48,21.04h15.06Z"/></g><g><path class="cls-1" d="M36.97,187.62l-10.71,32.34c-.48,1.45-.48,1.83,.16,1.83h8.61v.7h-15.6v-.7h4.41c.54,0,1.02-.22,1.56-1.83l10.81-32.6c.54-1.61-.11-1.83-.75-1.83h-6.67v-.7h8.66l4.14,36.26,22.44-34.06,1.45-2.21h8.18v.7h-6.67c-.65,0-1.13,.22-1.45,1.88l-6.35,32.55c-.32,1.61-.11,1.83,.48,1.83h5.43v.7h-15.98v-.7h7.69c.75,0,1.24-.22,1.56-1.83l6.29-32.44-23.14,35.13h-.54l-4.04-35.03Z"/><path class="cls-1" d="M73.29,221.79h5.54c.54,0,.91-.22,1.29-1.83l8.12-32.6c.38-1.61-.16-1.83-.7-1.83h-5.54v-.7h26.09l-3.39,13.61h-.7c3.44-12.91,3.17-12.91,2.42-12.91h-16.57c-.32,.65-.86,2.1-3.28,11.84l-1.24,5.06h13.83l-.22,.81h-13.83l-1.67,6.67c-2.53,10.11-2.85,11.89-2.21,11.89h18.83c.65,0,.75,0,4.57-12.86h.7l-4.04,13.56h-28.03v-.7Z"/><path class="cls-1" d="M111.76,222.48v-.7h5.54c.54,0,.91-.22,1.29-1.83l8.12-32.6c.38-1.61-.16-1.83-.7-1.83h-5.54v-.7h13.61c9.25,0,14.63,6.4,14.63,14.26,0,12.11-8.55,23.4-24.1,23.4h-12.86Zm13.02-.7c14.74,0,23.08-11.14,23.08-22.54,0-7.8-5.11-13.72-13.93-13.72-3.17,0-4.52,.05-5.6,.16-.27,.54-.75,1.51-3.28,11.73l-4.84,19.58c-.86,3.55-1.13,4.79-.54,4.79h5.11Z"/></g><path class="cls-3" d="M28.97,240.22c-9.74,11.9-15.59,19.85-15.59,21.79H170.01l27.98-114.42H126.26L200.69,58.81l-80.94,.14,3.38-12.35"/><path class="cls-1" d="M129.88,51.86l-1.63,4.39h-.73l-1.64-4.39-.06,4.47h-.71l.18-5.36h.97l1.65,4.41,1.64-4.41h.95l.17,5.36h-.74l-.05-4.46Zm5.27,4.59c-1.57,0-2.7-1.1-2.7-2.8,0-1.61,1.12-2.82,2.7-2.82s2.7,1.09,2.7,2.79c0,1.61-1.12,2.83-2.7,2.83Zm-.02-4.97c-1.14,0-1.94,.85-1.94,2.14s.8,2.18,1.97,2.18,1.95-.86,1.95-2.15-.81-2.17-1.98-2.17Zm6.23,4.84h-1.58v-5.36h1.61c1.78,0,2.84,1.05,2.84,2.64s-1.03,2.72-2.88,2.72Zm0-4.69h-.85v4.01h.88c1.28,0,2.11-.68,2.11-1.99s-.79-2.02-2.15-2.02Zm4.81,4.69v-5.36h3.4v.68h-2.67v1.66h2.22v.68h-2.22v1.67h2.67v.68h-3.4Zm7.45-3.42l.99-2.12,.64,.31-1.34,1.81h-.29Zm2.64,3.42l-.03-.7c1.62-1.53,2.58-2.24,2.58-3.18,0-.58-.42-.97-1.01-.97-.45,0-.94,.25-1.28,.58l-.25-.62c.33-.31,.94-.6,1.57-.6,1,0,1.69,.64,1.69,1.6,0,1.02-.88,1.74-2.55,3.24h2.68l.03,.64h-3.43Zm8.58-1.54c0,1.02-.88,1.67-1.93,1.67-.52,0-1.17-.16-1.52-.37l.13-.65c.33,.18,.86,.39,1.4,.39,.64,0,1.2-.33,1.2-.95,0-.54-.44-.94-1.22-.94-.24,0-.56,.03-.79,.08v-.58c1.06-.25,1.81-.59,1.81-1.2,0-.45-.33-.75-.94-.75-.42,0-.94,.21-1.3,.54l-.27-.63c.38-.3,.99-.56,1.57-.56,.97,0,1.65,.48,1.65,1.3,0,.64-.5,1.1-1.36,1.35,1.09,0,1.57,.64,1.57,1.3Z"/></g></g></svg>