<?xml version="1.0" encoding="UTF-8"?><svg id="Layer_2" xmlns="http://www.w3.org/2000/svg" viewBox="0 0 232.14 260.49"><defs><style>.cls-1{fill:#0e1436;}.cls-2{fill:none;stroke:#0e1436;stroke-miterlimit:10;stroke-width:.86px;}.cls-3{fill:#d6c7ec;}</style></defs><g id="Layer_1-2"><g><polygon class="cls-3" points="199.06 0 0 109.13 37.06 236.48 153.1 260.49 138.06 215.46 199.06 0"/><polyline class="cls-2" points="160.18 60.86 166.12 32.71 28.98 32.71 3.49 194.84"/><path class="cls-2" d="M132.28,246.2c1.76,0,3.46-.1,5.16-.2h2.22l.02-.12c33.84-2.82,54.69-25.32,64.22-63.52,30.17-121.5,29.91-121.5,25.88-121.5"/><g><path class="cls-1" d="M64.25,81.76l5.71-22.95c.38-1.65,.16-1.87-.38-1.87h-5.65v-.71h13.89v.71h-5.65c-.55,0-.99,.22-1.37,1.87l-5.71,22.95c-2.03,8.24,.38,12.96,8.34,12.96s12.52-4.67,14.6-13.01c6.15-24.76,6.09-24.76,5.27-24.76h-8.78v-.71h15.87v.71h-4.5c-.77,0-.88,0-7.03,24.71-2.2,8.89-7.25,13.89-15.7,13.89s-11.09-5-8.89-13.78Z"/><path class="cls-1" d="M115.91,57.93l-8.51,34.15c-.38,1.54-.11,1.87,.77,1.87h7.96v.71h-16.58v-.71h5.71c.44,0,.93,0,1.37-1.87l8.29-33.27c.33-1.32,.22-1.87-.44-1.87h-5.71v-.71h7.36l14.82,36.78,8.56-34.2c.38-1.54,.05-1.87-.82-1.87h-7.96v-.71h16.58v.71h-5.71c-.44,0-.88,0-1.32,1.87l-8.95,35.85h-.6l-14.82-36.73Z"/><path class="cls-1" d="M74.14,148.84h5.65c.55,0,.93-.22,1.32-1.87l8.29-33.27c.38-1.65-.17-1.87-.71-1.87h-5.65v-.71h26.63l-3.46,13.89h-.71c3.02-12.3,3.35-13.18,1.98-13.18h-16.42c-.27,.6-.82,1.92-3.35,12.13l-1.26,5.11h13.01l-.22,.82h-13.01l-4.23,17.02c-.44,1.76,.33,1.92,1.1,1.92h7.96v.71h-16.91v-.71Z"/><path class="cls-1" d="M110.64,148.84h5.65c.55,0,.93-.22,1.32-1.87l8.29-33.27c.38-1.65-.17-1.87-.71-1.87h-5.65v-.71h11.91c9,0,12.85,3.29,12.85,9.33,0,4.5-3.35,10.65-13.94,11.8,1.26,4.17,2.8,9.11,5.76,14.82,1.21,2.31,1.59,2.31,4.5,2.31v.44c-.55,.16-1.54,.22-1.98,.22-1.43,0-2.25-.71-3.02-2.14-3.46-6.7-4.83-11.36-6.04-15.59-.93,.05-1.87,.11-2.85,.11h-3.51l.22-.82h3.46c12.74,0,16.58-6.2,16.58-11.15,0-6.26-4.45-8.62-11.97-8.62h-3.9c-.27,.55-.88,1.98-3.4,12.13l-5.71,23c-.38,1.65,.17,1.87,.71,1.87h5.65v.71h-14.22v-.71Z"/><path class="cls-1" d="M150.39,148.08l21.47-36.18-.22-1.43,.05-.22h.93c0,.55,0,1.26,.16,2.53l4.34,35.19c.11,.77,.16,.88,2.8,.88v.71h-12.46v-.71h7.85c.93,0,1.04-.38,.99-.93l-1.54-12.57h-15.92l-7.63,12.85c-.27,.49,0,.66,.38,.66h7.8v.71h-12.41v-.71c2.8,0,3.07-.22,3.4-.77Zm24.27-13.45l-2.64-21.47-12.74,21.47h15.37Z"/><path class="cls-1" d="M58.16,168.88l-10.93,33c-.49,1.48-.49,1.87,.16,1.87h8.78v.71h-15.92v-.71h4.5c.55,0,1.04-.22,1.59-1.87l11.04-33.27c.55-1.65-.11-1.87-.77-1.87h-6.81v-.71h8.84l4.23,37,22.89-34.75,1.48-2.25h8.34v.71h-6.81c-.66,0-1.15,.22-1.48,1.92l-6.48,33.21c-.33,1.65-.11,1.87,.49,1.87h5.55v.71h-16.31v-.71h7.85c.77,0,1.26-.22,1.59-1.87l6.42-33.1-23.61,35.85h-.55l-4.12-35.74Z"/><path class="cls-1" d="M95.21,203.74h5.65c.55,0,.93-.22,1.32-1.87l8.29-33.27c.38-1.65-.17-1.87-.71-1.87h-5.65v-.71h26.63l-3.46,13.89h-.71c3.51-13.18,3.24-13.18,2.47-13.18h-16.91c-.33,.66-.88,2.14-3.35,12.08l-1.26,5.16h14.11l-.22,.82h-14.11l-1.7,6.81c-2.58,10.32-2.91,12.13-2.25,12.13h19.22c.66,0,.77,0,4.67-13.12h.71l-4.12,13.83h-28.6v-.71Z"/><path class="cls-1" d="M134.46,204.45v-.71h5.65c.55,0,.93-.22,1.32-1.87l8.29-33.27c.38-1.65-.16-1.87-.71-1.87h-5.65v-.71h13.89c9.44,0,14.93,6.53,14.93,14.55,0,12.35-8.73,23.88-24.6,23.88h-13.12Zm13.29-.71c15.04,0,23.55-11.36,23.55-23,0-7.96-5.22-14-14.22-14-3.24,0-4.61,.06-5.71,.17-.27,.55-.77,1.54-3.35,11.97l-4.94,19.98c-.88,3.62-1.15,4.89-.55,4.89h5.22Z"/></g><path class="cls-1" d="M36.82,23.64l-1.63,4.39h-.73l-1.64-4.39-.06,4.47h-.71l.18-5.36h.97l1.65,4.41,1.64-4.41h.95l.17,5.36h-.74l-.05-4.46Zm5.27,4.59c-1.57,0-2.7-1.1-2.7-2.8,0-1.61,1.12-2.82,2.7-2.82s2.7,1.09,2.7,2.79c0,1.61-1.12,2.83-2.7,2.83Zm-.02-4.97c-1.14,0-1.94,.85-1.94,2.14s.8,2.18,1.97,2.18,1.95-.86,1.95-2.15-.81-2.17-1.98-2.17Zm6.23,4.84h-1.58v-5.36h1.61c1.78,0,2.84,1.05,2.84,2.64s-1.03,2.72-2.88,2.72Zm0-4.69h-.85v4.01h.88c1.28,0,2.11-.68,2.11-1.99s-.79-2.02-2.15-2.02Zm4.81,4.69v-5.36h3.4v.68h-2.67v1.66h2.22v.68h-2.22v1.67h2.67v.68h-3.4Zm7.45-3.42l.99-2.12,.64,.31-1.34,1.81h-.29Zm2.64,3.42l-.03-.7c1.62-1.53,2.58-2.24,2.58-3.18,0-.58-.42-.97-1.01-.97-.45,0-.94,.25-1.28,.58l-.25-.62c.33-.31,.94-.6,1.57-.6,1,0,1.69,.64,1.69,1.6,0,1.02-.88,1.74-2.55,3.24h2.68l.03,.64h-3.43Zm8.58-1.54c0,1.02-.88,1.67-1.93,1.67-.52,0-1.17-.16-1.52-.37l.13-.65c.33,.18,.86,.39,1.4,.39,.64,0,1.2-.33,1.2-.95,0-.54-.44-.94-1.22-.94-.24,0-.56,.03-.79,.08v-.58c1.06-.25,1.81-.59,1.81-1.2,0-.45-.33-.75-.94-.75-.42,0-.94,.21-1.3,.54l-.27-.63c.38-.3,.99-.56,1.57-.56,.97,0,1.65,.48,1.65,1.3,0,.64-.5,1.1-1.36,1.35,1.09,0,1.57,.64,1.57,1.3Z"/></g></g></svg>